<svg xmlns="http://www.w3.org/2000/svg" width="64" height="64" viewBox="0 0 64 64" fill="none"><g clip-path="url(#clip0_155_4634)"><path d="M47.2058 15.8881H15.7178V47.5176H47.2058V15.8881Z" fill="#40FFAF"></path><path d="M15.7353 0L0 15.8392V63.3568H47.2059L62.9412 47.5176V0H15.7353ZM55.0735 15.8881V39.598C55.0735 43.9723 51.5515 47.5176 47.2059 47.5176C47.2059 51.8919 43.6839 55.4372 39.3382 55.4372H7.85016V24.4197C7.85016 20.0454 11.3721 15.89 15.7178 15.89C15.7178 11.5157 19.2398 7.97044 23.5855 7.97044H55.0735V15.89V15.8881Z" fill="#40FFAF"></path><path d="M84.7705 23.661H78.7075V52.7426H84.7705V23.661Z" fill="#F8F8F8"></path><path d="M157.355 16.8599C155.504 14.8986 153.33 13.3421 150.896 12.2353C148.458 11.1265 145.81 10.5653 143.024 10.5653C140.239 10.5653 137.618 11.1265 135.182 12.2353C132.748 13.3421 130.574 14.8986 128.723 16.8599C126.873 18.8193 125.401 21.1209 124.35 23.7001C123.299 26.2794 122.765 29.0776 122.765 32.0186C122.765 34.9597 123.299 37.7579 124.35 40.3372C125.403 42.9164 126.873 45.218 128.723 47.1773C130.574 49.1387 132.748 50.6952 135.182 51.802C137.618 52.9107 140.256 53.472 143.024 53.472C145.793 53.472 148.46 52.9107 150.896 51.802C153.33 50.6952 155.504 49.1387 157.355 47.1773C159.204 45.218 160.671 42.9164 161.714 40.3372C162.756 37.7579 163.284 34.9597 163.284 32.0206C163.284 29.0815 162.756 26.2833 161.714 23.7021C160.671 21.1228 159.204 18.8232 157.355 16.8619V16.8599ZM155.923 37.8498C155.201 39.6645 154.185 41.2875 152.903 42.6739C151.622 44.0603 150.123 45.1671 148.446 45.961C146.774 46.755 144.948 47.1578 143.022 47.1578C141.097 47.1578 139.273 46.7608 137.599 45.9747C135.922 45.1886 134.422 44.0877 133.144 42.7033C131.864 41.3188 130.848 39.6958 130.123 37.8791C129.401 36.0664 129.035 34.0934 129.035 32.0167C129.035 29.94 129.403 27.9982 130.123 26.1836C130.846 24.3689 131.862 22.7459 133.144 21.3595C134.424 19.973 135.924 18.8682 137.601 18.0723C139.275 17.2784 141.101 16.8756 143.024 16.8756C144.948 16.8756 146.774 17.2725 148.448 18.0586C150.123 18.8447 151.622 19.9457 152.905 21.3301C154.185 22.7165 155.201 24.3435 155.925 26.1679C156.648 27.9924 157.015 29.9595 157.015 32.0147C157.015 34.0699 156.648 36.0332 155.927 37.8459L155.923 37.8498Z" fill="#F8F8F8"></path><path d="M84.7705 12.5364H78.7075V18.6394H84.7705V12.5364Z" fill="#F8F8F8"></path><path d="M112.249 28.2505C111.361 26.956 110.225 25.8844 108.867 25.0611C107.748 24.3845 106.472 23.9602 105.061 23.794C104.605 23.7392 104.133 23.7119 103.649 23.7119C101.617 23.7119 99.6881 24.103 97.9164 24.8715C96.1448 25.6399 94.5615 26.7213 93.2095 28.0804C91.8574 29.4394 90.7851 31.039 90.0197 32.8321C89.2543 34.6233 88.8677 36.5709 88.8677 38.6164C88.8677 39.0935 88.891 39.5628 88.9318 40.0262C89.0697 41.5574 89.433 43.02 90.0197 44.3869C90.7831 46.1703 91.8574 47.764 93.2075 49.123C94.5596 50.484 96.1428 51.5634 97.9145 52.3319C99.6862 53.1024 101.615 53.4915 103.647 53.4915C105.679 53.4915 107.385 53.0378 108.865 52.1422C110.223 51.321 111.359 50.2415 112.247 48.9294V52.7641H118.289V10.4773L112.247 16.5588V28.2505H112.249ZM110.744 43.1628C110.077 44.5218 109.131 45.613 107.929 46.4108C106.728 47.2067 105.306 47.6115 103.704 47.6115C102.101 47.6115 100.708 47.2067 99.4064 46.4089C98.101 45.611 97.0384 44.5199 96.2438 43.1687C95.4512 41.8194 95.0491 40.2883 95.0491 38.6164C95.0491 36.9444 95.4415 35.4368 96.2166 34.0777C96.9918 32.7187 98.0466 31.6197 99.352 30.8102C100.654 30.0026 102.118 29.5939 103.705 29.5939C105.293 29.5939 106.724 29.9967 107.915 30.7926C109.108 31.5904 110.056 32.6835 110.73 34.0406C111.406 35.4016 111.748 36.9405 111.748 38.6144C111.748 40.2883 111.41 41.7998 110.744 43.1608V43.1628Z" fill="#F8F8F8"></path><path d="M185.416 28.9486C184.464 28.6631 183.439 28.3893 182.333 28.1234C181.96 28.0334 181.605 27.9435 181.259 27.8535C178.866 27.2336 175.808 26.5531 174.044 24.6466C172.447 22.9199 172.542 20.3367 173.78 18.4341C175.318 16.068 178.225 15.4481 180.868 15.4481C185.603 15.4481 188.062 17.5189 189.29 19.7716L193.457 15.5772C191.112 12.6401 187.141 10.5125 181.127 10.5125C171.066 10.5125 166.829 16.0797 166.829 21.8405C166.829 26.649 168.719 29.895 176.674 32.4704C177.846 32.8497 179.145 33.2134 180.593 33.5674C180.659 33.583 180.719 33.5987 180.783 33.6143C183.536 34.2928 186.869 35.032 189.01 37.0539C190.535 38.4932 190.968 40.7615 190.609 42.7834C189.888 46.8527 185.302 48.0886 181.766 48.0886C176.684 48.0886 173.413 46.3287 171.841 42.6133L167.42 47.0639C169.978 51.0022 174.609 53.4739 181.587 53.4739C191.215 53.4739 196.996 48.4406 196.996 41.1624C196.996 35.6089 194.853 31.7781 185.412 28.9505L185.416 28.9486Z" fill="#F8F8F8"></path></g><defs><clipPath id="clip0_155_4634"><rect width="64" height="64" fill="white"></rect></clipPath></defs></svg>
